<?xml version="1.0" encoding="utf-8"?>
<!-- Generator: Adobe Illustrator 27.1.1, SVG Export Plug-In . SVG Version: 6.00 Build 0)  -->
<svg version="1.1" xmlns="http://www.w3.org/2000/svg" xmlns:xlink="http://www.w3.org/1999/xlink" x="0px" y="0px"
	 viewBox="0 0 1920 1920" style="enable-background:new 0 0 1920 1920;" xml:space="preserve">
<g id="Capa_1">
</g>
<g id="Capa_2">
	<path d="M1213.14,378.34c-4.17,27.88-15.53,53.66-24.73,80.05c-37.75,108.29-75.46,216.59-113.65,324.72
		c-46.19,130.77-93.01,261.31-139.25,392.06c-44.12,124.77-87.82,249.68-131.77,374.51c-3.49,9.92-7.22,19.73-14.82,27.58
		c-12.13,12.52-25.75,16.24-41.02,6.56c-15.06-9.55-21.02-28.05-15.45-43.45c23.74-65.73,47.5-131.45,70.91-197.3
		c43.31-121.8,86.57-243.62,129.5-365.55c38.17-108.42,75.89-217.01,113.79-325.53c32.5-93.07,64.77-186.22,97.56-279.18
		c10.23-29.01,41.1-36.63,61.44-16.56C1212.3,362.8,1213.31,369.89,1213.14,378.34z"/>
	<path d="M1257.06,1438.85c-16.62,3.11-25.41-7.48-30.18-20.24c-4.71-12.59-4.03-24.94,7.44-36.35
		c122.52-121.8,244.39-244.25,367.02-365.94c11.57-11.48,12.86-17.03,0.47-29.3c-117.94-116.84-235.1-234.46-352.47-351.86
		c-19.65-19.66-21.56-38.96-5.54-55.47c12.85-13.25,37.25-9.96,54.74,7.54c127.91,127.87,255.6,255.95,383.87,383.45
		c20.63,20.51,24.07,35.62-0.09,61.11c-37.13,39.17-76.05,76.64-114.23,114.81c-92.11,92.09-184.27,184.14-276.3,276.32
		C1282.06,1432.67,1272.17,1441.3,1257.06,1438.85z"/>
	<path d="M329.9,999.41c125.42,125.5,250.03,250.04,374.41,374.82c13.39,13.43,23.29,28.55,12.25,48.8
		c-10.01,18.34-37.1,23.25-52.26,8.31c-37.5-36.95-74.6-74.3-111.82-111.53c-97.38-97.37-194.73-194.76-292.1-292.14
		c-16.86-16.86-17.4-38.56-0.16-55.84C389.43,842.36,518.8,713.04,648.26,583.8c15.77-15.75,39.16-16.23,53.25-2.02
		c14.26,14.39,12.72,33.08-4.7,50.52C574.69,754.56,452.5,876.76,329.9,999.41z"/>
</g>
</svg>
