<?xml version="1.0" encoding="utf-8"?>
<!-- Generator: Adobe Illustrator 27.1.1, SVG Export Plug-In . SVG Version: 6.00 Build 0)  -->
<svg version="1.1" xmlns="http://www.w3.org/2000/svg" xmlns:xlink="http://www.w3.org/1999/xlink" x="0px" y="0px"
	 viewBox="0 0 1920 1920" style="enable-background:new 0 0 1920 1920;" xml:space="preserve">
<g id="Capa_1">
	<g>
		<path d="M1648.08,1709.38c-460.65,0-921.3,0-1381.95,0c-26.71-10.37-45.15-29.02-55.63-55.62c0-462.53,0-925.05,0-1387.58
			c14.15-35.38,38.99-55.56,78.33-55.56c444.51,0.03,889.03,0.02,1333.54-0.01c12.01,0,23.96,1.68,35.11,5.37
			c39.23,12.99,51.64,40.44,51.68,76.7c0.5,444.93,0.4,889.86,0.05,1334.78c-0.01,15.9-2.82,31.84-11.92,46.27
			C1685.46,1692.49,1667.53,1701.73,1648.08,1709.38z M959.93,660.41c-227.83,0-455.66,0.14-683.49-0.34
			c-13.66-0.03-16.37,3.82-16.35,16.76c0.38,291.69,0.29,583.38,0.29,875.07c0,27.8-0.12,55.61,0.15,83.41
			c0.15,15.4,8.66,23.73,23.76,24.1c4.39,0.11,8.78,0.1,13.17,0.1c441.51,0,883.02-0.16,1324.53,0.4
			c26.46,0.03,37.93-10.46,37.9-37.97c-0.33-315.1-0.3-630.21,0.11-945.31c0.02-13.38-3.37-16.55-16.59-16.53
			C1415.59,660.53,1187.76,660.41,959.93,660.41z M960.22,610.35c228.31,0,456.62-0.07,684.93,0.21
			c10.81,0.01,14.92-1.78,14.85-14.04c-0.57-100.96-0.29-201.93-0.35-302.9c-0.01-23.94-9.24-33.17-33.19-33.17
			c-445.4-0.03-890.8-0.03-1336.19,0c-21.32,0-29.86,8.83-29.87,30.62c-0.04,100.97,0.25,201.93-0.35,302.9
			c-0.08,13.4,3.37,16.71,16.71,16.68C504.58,610.23,732.4,610.35,960.22,610.35z"/>
		<path d="M1033.23,436.29c2.49,54.53-46.44,96-94.29,99.49c-55.49,4.05-105.75-47.21-104.96-101.82
			c0.75-51.77,44.45-96.38,94.37-97.82C990.38,334.35,1036.1,382.61,1033.23,436.29z M982.16,435.15
			c-0.06-27.68-20.92-47.92-49.11-47.64c-23.95,0.24-47.7,23.51-47.84,46.88c-0.15,24.52,24.61,50.1,48.5,50.04
			C956.35,484.37,984.15,463.42,982.16,435.15z"/>
		<path d="M681.24,336.45c62.1,0.47,102.31,42.12,102.95,100.58c0.59,53.93-47.23,99.51-103.6,98.56
			c-49.41-0.83-95.16-45.41-95.93-99.75C583.91,383.08,629.91,334.93,681.24,336.45z M635.88,434.41
			c-0.04,28.27,21.6,50.56,49.03,50.49c25.55-0.06,49.09-24.44,48.83-50.56c-0.26-25.53-23.07-47.23-49.72-47.28
			C656.42,387,635.92,407.16,635.88,434.41z"/>
		<path d="M532.56,435.45c5.19,57.38-49.39,101.35-100.15,100.02c-54.58-1.43-97.24-43.41-98.22-99.62
			c-0.9-51.94,41.62-99.63,100.41-99.77C486.64,335.94,539.45,383.55,532.56,435.45z M481.75,435.47
			c-0.03-28.59-19.5-47.93-47.64-48.32c-27.18-0.38-46.57,21.85-49.49,48.11c-2.52,22.64,24.95,49.46,48.4,49.45
			C461.68,484.68,481.79,464.37,481.75,435.47z"/>
	</g>
</g>
<g id="Capa_2">
</g>
</svg>
